<svg width="100" height="100" viewBox="0 0 100 100" fill="none" xmlns="http://www.w3.org/2000/svg">
<path fill-rule="evenodd" clip-rule="evenodd" d="M99.1212 21.665C98.2425 15.1297 96.4852 10.5441 92.9706 7.02944C89.4559 3.5148 84.8703 1.75745 78.335 0.87875C77.7223 0.796367 77.0926 0.721708 76.4449 0.654048C70.1842 0 62.2542 0 52 0H48C36.989 0 28.658 0 22.196 0.809804C15.3769 1.66428 10.6385 3.42037 7.02944 7.02944C3.5148 10.5441 1.75745 15.1297 0.87875 21.665C0.796367 22.2777 0.721708 22.9075 0.654048 23.5551C0 29.8158 0 37.7458 0 48V52C0 63.011 0 71.342 0.809804 77.804C1.66428 84.6231 3.42037 89.3615 7.02944 92.9706C10.0507 95.9918 13.8634 97.7145 19.0257 98.6968C25.8735 100 35.0966 100 48 100H52C63.315 100 71.8 100 78.335 99.1212C84.8703 98.2425 89.4559 96.4852 92.9706 92.9706C95.9918 89.9493 97.7145 86.1366 98.6968 80.9743C100 74.1265 100 64.9034 100 52V48C100 36.685 100 28.2 99.1212 21.665ZM80.38 37.11C84.65 37.11 88.11 33.65 88.11 29.38C88.11 25.11 84.65 21.65 80.38 21.65C76.11 21.65 72.65 25.11 72.65 29.38C72.65 33.65 76.11 37.11 80.38 37.11ZM33.99 37.11C38.26 37.11 41.72 33.65 41.72 29.38C41.72 25.11 38.26 21.65 33.99 21.65C29.72 21.65 26.26 25.11 26.26 29.38C26.26 33.65 29.72 37.11 33.99 37.11ZM64.91 29.38C64.91 25.11 61.45 21.65 57.18 21.65C52.91 21.65 49.45 25.11 49.45 29.38C49.45 33.65 52.91 37.11 57.18 37.11C61.45 37.11 64.91 33.65 64.91 29.38ZM13.3751 7.29469C11.9941 11.9265 11.25 16.8263 11.25 21.91C11.25 48.24 31.21 69.92 56.83 72.62V87.49C72.2916 84.9775 85.9509 77.1422 95.9128 65.9332C95.8142 70.5856 95.6042 74.4751 95.157 77.8015C94.3379 83.8935 92.7898 87.4945 90.1421 90.1421C87.4945 92.7898 83.8935 94.3379 77.8015 95.157C71.5945 95.9915 63.4268 96 52 96H48C36.5732 96 28.4055 95.9915 22.1985 95.157C16.1065 94.3379 12.5055 92.7898 9.85786 90.1421C7.21022 87.4945 5.66206 83.8935 4.84301 77.8015C4.00849 71.5945 4 63.4268 4 52V48C4 36.5732 4.00849 28.4055 4.84301 22.1985C5.66206 16.1065 7.21022 12.5055 9.85786 9.85786C10.8644 8.85137 12.0086 8.00376 13.3751 7.29469Z" fill="currentColor"/>
</svg>
